<mxfile host="localhost" modified="2020-05-18T06:35:09.782Z" agent="5.0 (Windows NT 10.0; Win64; x64) AppleWebKit/537.36 (KHTML, like Gecko) Code/1.45.1 Chrome/78.0.3904.130 Electron/7.2.4 Safari/537.36" etag="zpSMKOptRAcksLqdjqpx" version="13.0.9">
    <diagram id="7dpZataHclQnCBHhR5TN" name="Page-1">
        <mxGraphModel dx="371" dy="294" grid="0" gridSize="10" guides="1" tooltips="1" connect="1" arrows="1" fold="1" page="1" pageScale="1" pageWidth="1169" pageHeight="827" math="0" shadow="0">
            <root>
                <mxCell id="0"/>
                <mxCell id="1" parent="0"/>
                <mxCell id="g6cdSrCcOUmQ4DHS_6iD-20" value="&lt;span style=&quot;color: rgba(0 , 0 , 0 , 0) ; font-family: monospace ; font-size: 0px&quot;&gt;%3CmxGraphModel%3E%3Croot%3E%3CmxCell%20id%3D%220%22%2F%3E%3CmxCell%20id%3D%221%22%20parent%3D%220%22%2F%3E%3CmxCell%20id%3D%222%22%20value%3D%22%26lt%3Bfont%20color%3D%26quot%3B%23ffffff%26quot%3B%26gt%3BSearch%20by%20tag%26lt%3B%2Ffont%26gt%3B%22%20style%3D%22outlineConnect%3D0%3BfontColor%3D%23232F3E%3BgradientColor%3Dnone%3BstrokeColor%3D%23232F3E%3BfillColor%3D%23ffffff%3Bdashed%3D0%3BverticalLabelPosition%3Dbottom%3BverticalAlign%3Dtop%3Balign%3Dcenter%3Bhtml%3D1%3BfontSize%3D12%3BfontStyle%3D0%3Baspect%3Dfixed%3Bshape%3Dmxgraph.aws4.resourceIcon%3BresIcon%3Dmxgraph.aws4.lambda_function%3B%22%20vertex%3D%221%22%20parent%3D%221%22%3E%3CmxGeometry%20x%3D%22225%22%20y%3D%22198.5%22%20width%3D%2260%22%20height%3D%2260%22%20as%3D%22geometry%22%2F%3E%3C%2FmxCell%3E%3C%2Froot%3E%3C%2FmxGraphModel%3E&lt;/span&gt;" style="rounded=1;whiteSpace=wrap;html=1;" parent="1" vertex="1">
                    <mxGeometry x="409" y="123" width="218" height="272.5" as="geometry"/>
                </mxCell>
                <mxCell id="g6cdSrCcOUmQ4DHS_6iD-4" value="" style="verticalLabelPosition=bottom;html=1;verticalAlign=top;strokeWidth=1;align=center;outlineConnect=0;dashed=0;outlineConnect=0;shape=mxgraph.aws3d.file;aspect=fixed;strokeColor=#666666;fillColor=#f5f5f5;fontColor=#333333;" parent="1" vertex="1">
                    <mxGeometry x="429" y="608.79" width="30.8" height="70.6" as="geometry"/>
                </mxCell>
                <mxCell id="g6cdSrCcOUmQ4DHS_6iD-5" value="" style="verticalLabelPosition=bottom;html=1;verticalAlign=top;strokeWidth=1;align=center;outlineConnect=0;dashed=0;outlineConnect=0;shape=mxgraph.aws3d.file;aspect=fixed;strokeColor=#666666;fillColor=#f5f5f5;fontColor=#333333;" parent="1" vertex="1">
                    <mxGeometry x="439" y="618.79" width="30.8" height="70.6" as="geometry"/>
                </mxCell>
                <mxCell id="g6cdSrCcOUmQ4DHS_6iD-6" value="" style="verticalLabelPosition=bottom;html=1;verticalAlign=top;strokeWidth=1;align=center;outlineConnect=0;dashed=0;outlineConnect=0;shape=mxgraph.aws3d.file;aspect=fixed;strokeColor=#666666;fillColor=#f5f5f5;fontColor=#333333;" parent="1" vertex="1">
                    <mxGeometry x="445.6" y="628.79" width="30.8" height="70.6" as="geometry"/>
                </mxCell>
                <mxCell id="g6cdSrCcOUmQ4DHS_6iD-7" value="" style="endArrow=classic;html=1;entryX=0.5;entryY=1;entryDx=0;entryDy=0;" parent="1" source="g6cdSrCcOUmQ4DHS_6iD-5" edge="1">
                    <mxGeometry width="50" height="50" relative="1" as="geometry">
                        <mxPoint x="455" y="588.79" as="sourcePoint"/>
                        <mxPoint x="454.4" y="523.79" as="targetPoint"/>
                    </mxGeometry>
                </mxCell>
                <mxCell id="g6cdSrCcOUmQ4DHS_6iD-8" value="ETL" style="text;html=1;align=center;verticalAlign=middle;resizable=0;points=[];autosize=1;" parent="1" vertex="1">
                    <mxGeometry x="415" y="558.5" width="40" height="20" as="geometry"/>
                </mxCell>
                <mxCell id="g6cdSrCcOUmQ4DHS_6iD-9" value="Data lake&lt;br&gt;(Document store)" style="text;html=1;align=center;verticalAlign=middle;resizable=0;points=[];autosize=1;" parent="1" vertex="1">
                    <mxGeometry x="319" y="473.5" width="110" height="30" as="geometry"/>
                </mxCell>
                <mxCell id="g6cdSrCcOUmQ4DHS_6iD-10" value="CSV Files" style="text;html=1;align=center;verticalAlign=middle;resizable=0;points=[];autosize=1;" parent="1" vertex="1">
                    <mxGeometry x="354" y="628.79" width="70" height="20" as="geometry"/>
                </mxCell>
                <mxCell id="g6cdSrCcOUmQ4DHS_6iD-11" value="" style="endArrow=classic;html=1;entryX=0.5;entryY=0;entryDx=0;entryDy=0;exitX=0.208;exitY=1.004;exitDx=0;exitDy=0;exitPerimeter=0;" parent="1" source="g6cdSrCcOUmQ4DHS_6iD-20" edge="1">
                    <mxGeometry width="50" height="50" relative="1" as="geometry">
                        <mxPoint x="454" y="399.5" as="sourcePoint"/>
                        <mxPoint x="454.37" y="463.79" as="targetPoint"/>
                    </mxGeometry>
                </mxCell>
                <mxCell id="g6cdSrCcOUmQ4DHS_6iD-13" value="&lt;font color=&quot;#ffffff&quot;&gt;Find TEDx talk&lt;/font&gt;" style="outlineConnect=0;fontColor=#232F3E;gradientColor=none;strokeColor=#232F3E;fillColor=#ffffff;dashed=0;verticalLabelPosition=bottom;verticalAlign=top;align=center;html=1;fontSize=12;fontStyle=0;aspect=fixed;shape=mxgraph.aws4.resourceIcon;resIcon=mxgraph.aws4.lambda_function;" parent="1" vertex="1">
                    <mxGeometry x="440" y="129.5" width="60" height="60" as="geometry"/>
                </mxCell>
                <mxCell id="g6cdSrCcOUmQ4DHS_6iD-14" value="&lt;font color=&quot;#ffffff&quot;&gt;Watch Next talk&lt;/font&gt;" style="outlineConnect=0;fontColor=#232F3E;gradientColor=none;strokeColor=#232F3E;fillColor=#ffffff;dashed=0;verticalLabelPosition=bottom;verticalAlign=top;align=center;html=1;fontSize=12;fontStyle=0;aspect=fixed;shape=mxgraph.aws4.resourceIcon;resIcon=mxgraph.aws4.lambda_function;" parent="1" vertex="1">
                    <mxGeometry x="530.8" y="129.5" width="60" height="60" as="geometry"/>
                </mxCell>
                <mxCell id="g6cdSrCcOUmQ4DHS_6iD-16" value="" style="shape=image;html=1;verticalAlign=top;verticalLabelPosition=bottom;labelBackgroundColor=#ffffff;imageAspect=0;aspect=fixed;image=https://cdn2.iconfinder.com/data/icons/freecns-cumulus/16/519964-027_Smartphone-128.png" parent="1" vertex="1">
                    <mxGeometry x="723.5" y="493.5" width="74" height="74" as="geometry"/>
                </mxCell>
                <mxCell id="g6cdSrCcOUmQ4DHS_6iD-19" value="" style="outlineConnect=0;dashed=0;verticalLabelPosition=bottom;verticalAlign=top;align=center;html=1;shape=mxgraph.aws3.api_gateway;fillColor=#D9A741;gradientColor=none;" parent="1" vertex="1">
                    <mxGeometry x="630" y="178" width="60" height="67" as="geometry"/>
                </mxCell>
                <mxCell id="g6cdSrCcOUmQ4DHS_6iD-21" value="" style="dashed=0;outlineConnect=0;html=1;align=center;labelPosition=center;verticalLabelPosition=bottom;verticalAlign=top;shape=mxgraph.weblogos.github" parent="1" vertex="1">
                    <mxGeometry x="172.5" y="329.5" width="75" height="75" as="geometry"/>
                </mxCell>
                <mxCell id="g6cdSrCcOUmQ4DHS_6iD-22" value="Source Code&lt;br&gt;Repository" style="text;html=1;align=center;verticalAlign=middle;resizable=0;points=[];autosize=1;" parent="1" vertex="1">
                    <mxGeometry x="165" y="414.5" width="90" height="30" as="geometry"/>
                </mxCell>
                <mxCell id="g6cdSrCcOUmQ4DHS_6iD-23" value="" style="endArrow=classic;html=1;dashed=1;" parent="1" target="g6cdSrCcOUmQ4DHS_6iD-22" edge="1">
                    <mxGeometry width="50" height="50" relative="1" as="geometry">
                        <mxPoint x="209.5" y="513.5" as="sourcePoint"/>
                        <mxPoint x="209.5" y="463.5" as="targetPoint"/>
                    </mxGeometry>
                </mxCell>
                <mxCell id="g6cdSrCcOUmQ4DHS_6iD-24" value="Push" style="text;html=1;align=center;verticalAlign=middle;resizable=0;points=[];autosize=1;" parent="1" vertex="1">
                    <mxGeometry x="215" y="478.5" width="40" height="20" as="geometry"/>
                </mxCell>
                <mxCell id="g6cdSrCcOUmQ4DHS_6iD-25" value="" style="pointerEvents=1;shadow=0;dashed=0;html=1;strokeColor=#666666;labelPosition=center;verticalLabelPosition=bottom;verticalAlign=top;align=center;fillColor=#f5f5f5;shape=mxgraph.mscae.intune.user_group;fontColor=#333333;" parent="1" vertex="1">
                    <mxGeometry x="735.5" y="628.5" width="50" height="37" as="geometry"/>
                </mxCell>
                <mxCell id="g6cdSrCcOUmQ4DHS_6iD-28" value="" style="endArrow=classic;startArrow=classic;html=1;exitX=0.5;exitY=0;exitDx=0;exitDy=0;exitPerimeter=0;" parent="1" source="g6cdSrCcOUmQ4DHS_6iD-25" target="g6cdSrCcOUmQ4DHS_6iD-16" edge="1">
                    <mxGeometry width="50" height="50" relative="1" as="geometry">
                        <mxPoint x="603.5" y="648.5" as="sourcePoint"/>
                        <mxPoint x="748.5" y="578.5" as="targetPoint"/>
                    </mxGeometry>
                </mxCell>
                <mxCell id="g6cdSrCcOUmQ4DHS_6iD-33" value="" style="endArrow=classic;html=1;dashed=1;entryX=0.5;entryY=1;entryDx=0;entryDy=0;" parent="1" source="g6cdSrCcOUmQ4DHS_6iD-21" target="g6cdSrCcOUmQ4DHS_6iD-34" edge="1">
                    <mxGeometry width="50" height="50" relative="1" as="geometry">
                        <mxPoint x="215.5" y="309.5" as="sourcePoint"/>
                        <mxPoint x="215.41071428571433" y="229.5" as="targetPoint"/>
                    </mxGeometry>
                </mxCell>
                <mxCell id="g6cdSrCcOUmQ4DHS_6iD-35" style="edgeStyle=orthogonalEdgeStyle;rounded=0;orthogonalLoop=1;jettySize=auto;html=1;dashed=1;" parent="1" source="g6cdSrCcOUmQ4DHS_6iD-34" edge="1">
                    <mxGeometry relative="1" as="geometry">
                        <mxPoint x="405" y="219.5" as="targetPoint"/>
                    </mxGeometry>
                </mxCell>
                <mxCell id="g6cdSrCcOUmQ4DHS_6iD-34" value="CI/CD" style="rounded=0;whiteSpace=wrap;html=1;" parent="1" vertex="1">
                    <mxGeometry x="177.5" y="199.5" width="65" height="40" as="geometry"/>
                </mxCell>
                <mxCell id="7hMbwOXeX9MvCnkQvBMl-2" value="&lt;font color=&quot;#ffffff&quot;&gt;Search by tag&lt;/font&gt;" style="outlineConnect=0;fontColor=#232F3E;gradientColor=none;strokeColor=#232F3E;fillColor=#ffffff;dashed=0;verticalLabelPosition=bottom;verticalAlign=top;align=center;html=1;fontSize=12;fontStyle=0;aspect=fixed;shape=mxgraph.aws4.resourceIcon;resIcon=mxgraph.aws4.lambda_function;" parent="1" vertex="1">
                    <mxGeometry x="440" y="216.5" width="60" height="60" as="geometry"/>
                </mxCell>
                <mxCell id="7hMbwOXeX9MvCnkQvBMl-3" value="&lt;font color=&quot;#ffffff&quot;&gt;Create Playlists&lt;/font&gt;" style="outlineConnect=0;fontColor=#232F3E;gradientColor=none;strokeColor=#232F3E;fillColor=#ffffff;dashed=0;verticalLabelPosition=bottom;verticalAlign=top;align=center;html=1;fontSize=12;fontStyle=0;aspect=fixed;shape=mxgraph.aws4.resourceIcon;resIcon=mxgraph.aws4.lambda_function;" parent="1" vertex="1">
                    <mxGeometry x="530.8" y="216.5" width="63" height="63" as="geometry"/>
                </mxCell>
                <mxCell id="7hMbwOXeX9MvCnkQvBMl-7" value="" style="shape=image;verticalLabelPosition=bottom;verticalAlign=top;imageAspect=0;aspect=fixed;image=data:image/png,iVBORw0KGgoAAAANSUhEUgAAA1wAAAPTCAYAAACkAwjJAAAzQElEQVR42u3dWZNU53nA8T5fIHacfILEjixHQUhGQgsCBIh9nxnQhoRWkEBi0QYSQgKEWCSxiEWAkzhxucoVx1VxXCkn5Ti5SXzri1SqkspFrp2KbMeVVHCu3pxz+j3dby+zMdMwPf27+H2BKThP/+u853lr169fDwAAAEy/mj8CAACA4AIAABBcAAAACC4AAADBBQAAILgAAAAQXAAAAIILAABAcAEAACC4AAAABBcAAIDgAgAAQHABAAAILgAAAMEFAACA4AIAABBcAAAAggsAAADBBQAAILgAAAAEFwAAAIILAABAcAEAAAguAAAABBcAAIDgAgAAEFwAAAAILgAAAMEFAAAguAAAABBcAAAAggsAAEBwAQAAILgAAAAEFwAAgOACAABAcAEAAAguAAAAwQUAAIDgAgAAEFwAwK3z+f9cDx/+8/Xw7j/9H8CU/ePPfu3ZKrgAgCq29v/012H4JwBTd+5fxZbgAgDEFiC2BBcAILYAsSW4AACxBYgtBBcAiC2xBYgtwQUAiC1AbAkuAEBsAWILwQUAYgtAbAkuAEBsAWJLcAEAYgsQWwguABBbAGJLcAEAYgsQW4ILABBbgNhCcAGA2AIQW4ILABBbgNgSXACA2ALEFoILAMQWgNgSXACA2ALEluACAMQWILYQXAAgtgDEluACAMQWILYEFwAgtgCxheACALEFILYEFwAgtgCxJbgAALEFiC0EFwCILQCxJbgAALEFiC3BBQCILUBsIbgAQGwBiC3BBQCILUBsCS4AQGwBYgvBBQBiCxBbCC4AEFtiCxBbggsAEFuA2EJwAYDYAsQWggsAxBaA2BJcAIDYAsQWggsAxBYgthBcACC2AMSW4AIAxBYgthBcACC2ALGF4AIAsQUgtgQXACC2ALGF4AIAsQWILQQXAIgtALEluAAAsQWILQQXAIgtQGwhuABAbAGILcEFAIgtQGwhuABAbAFiC8EFAGILQGwJLgBAbAFiC8EFAGILEFsILgAQWwBiS3ABAGILEFsILgAQW4DYQnABgNgCEFuCCwAQW4DYQnABgNgCxBaCCwDEFiC2EFwAgNgCxBaCCwDEFiC2EFwAILYAsYXgAgCx5UciILYQXAAgtgCxheACALEFiC0EFwCILQCxheACALEFiC0EFwCILUBsIbj8EQAQWwBiC8EFAGILEFsILgAQW4DYAsEFgNgCEFsILgAQW4DYQnABgNgCxBYILgDEFoDYQnABgNgCxBaCCwDEFiC2QHABILYAxBaCCwDEFiC2EFwAILYAsQWCCwCxBSC2EFwAILYAsYXgAgCxBYgtEFwAiC0AsYXgAgCxBYgtBBcAiC1AbIHgAkBsAWLLsxXBBQBiCxBbCC4AEFuA2ALBBYDYAsQWCC4AxJYfiYDYQnABgNgCxBYILgDEFiC2QHABILYAxBaCCwDEFiC2QHABILYAsQWCCwCxBSC2EFwAILYAsQWCCwCxBYgtEFwAiC0AsYXgAgCxBYgtEFwAiC1AbIHgAkBsAYgtBBcAiC1AbIHgAkBsAWILBBcAYgtAbCG4AEBsAWILBBcAYgsQWyC4ABBbAGILwQUAYgsQWyC4ABBbgNgCwQWA2AIQWwguABBbgNgCwQWA2ALEFgguAMQWILY8WxFcACC2ALEFggsAsQWILRBcAIgtQGyB4AJAbIktQGyB4AJAbAFiCwQXAGILEFsguAAQWwBiCwQXAGILEFsguAAQW4DYAsEFgNgCEFsguAAQW4DYAsEFgNgCxBYILgDEFoDYAsEFgNgCxBYILgDEFiC2QHABILYAxBYILgDEFiC2QHABILYAsQWCCwCxBSC2QHABILYAsQWCCwCxBYgtEFwAiC0AsQWCCwCxBYgtEFwAiC1AbIHgAkBsAYgtEFwAiC1AbIHgAkBsAWILBBcAYgsQW2ILBBcAYgsQWyC4ABBbgNgCwQWA2ALEFiC4AMSW2ALEFgguAMQWILZAcAEgtgCxBQguALEFILZAcAEgtgCxBYILALEFiC1AcAGILQCxBYILALEFiC0QXP4IAGILEFuA4AIQWwBiCwQXAGILEFuA4AIQW4DYAgQXgNgCEFsguAAQW4DYAgQXgNgCxBYguADEFoDYAsEFgNgCxBYguADEFiC2AMEFILYAxBYILgDEFiC2AMEFILYAsQUILgCxBSC2QHABILYAsQUILgCxBYgtQHABiC0AsQWCCwCxBYgtQHABiC1AbAGCC0BsAWILEFwAYktsAWILEFwAYgsQW4DgAhBbgNgCBBeA2AIQW4DgAhBbgNgCBBeA2ALEFiC4AMQWgNgCBBeA2ALEFiC4AMQWILYAwQUgtgDEFiC4AMQWILYAwQUgtgCxBQguALEFILYAwQUgtgCxBQguALEFiC1AcAGILQCxBQguALEFiC1AcAGILUBsAYILQGwBiC1AcAGILUBsAYILQGwBYgsQXABiC0BsAYILQGwBYgsQXABiCxBbgOACEFsAYgsQXABiCxBbgOACEFuA2AIEF4DYAsSWZysguADEFiC2AMEFILYAsQUILgCxBYgtAMEFiC0/EgGxBQguALEFiC1AcAGILUBsAQguQGwBiC1AcAGILUBsAYILQGwBYgtAcAFiC0BsAYILQGwBYgsQXABiCxBbAIILEFsAYgsQXABiCxBbgOACEFuA2AIQXIDYAhBbgOACEFuA2AIEF4DYAsQWgOACxBaA2AIEF4DYAsQWILgAxBYgtgAEFyC2AMQWILgAxBYgtgDBBSC2ALEFILgAsQUgtgDBBSC2ALEFCC4AsQWILQDBBYgtQGx5tgKCC0BsAWILEFwAYgsQWwCCCxBbgNgCEFyA2PIDERBbgOACEFuA2AIQXIDYAsQWgOACxBaA2AIEF4DYAsQWgOACxBYgtgAEFyC2AMQWILj8EQCxBYgtAMEFiC1AbAEILkBsAYgtAMEFiC1AbAEILkBsAWILQHABYgtAbAEILkBsAWILQHABYgsQWwCCCxBbAGILQHABYgsQWwCCCxBbgNgCEFyA2AIQWwCCCxBbgNgCEFyA2ALEFoDgAsQWgNgCEFyA2ALEFoDgAsQWILYABBcgtgCxJbYABBcgtgCxBSC4ALEFiC0AwQWILUBsASC4QGyJLUBsAQguQGwBYgtAcAFiCxBbAAguEFsAYgtAcAFiCxBbAIILEFuA2AJAcIHYAhBbAIILEFuA2AIQXIDYAsQWAIILxBaA2AIQXIDYAsQWgOACxBYgtgAQXCC2AMQWgOACxBYgtgAEFyC2ALEFgOACsQUgtgAEFyC2ALEFILgAsQWILQAEF4gtALEFILgAsQWILQDBBYgtQGwBILhAbAGILQDBBYgtQGwBCC5AbAFiCwDBBWILQGwBCC5AbAFiC0BwAWILEFsACC4QW4DYAkBwgdgSW4DYAhBcgNgCxBYAggvEFiC2ABBcILYAxBaA4ALEFiC2ABBcILYAsQWA4AKxBSC2AAQXILYAsQWA4AKxBYgtAAQXiC0AsQUguACxBYgtAAQXiC1AbAEguEBsAYgtAMEFiC1AbAEguEBsAWILAMEFYgtAbAEILkBsAWILAMEFYgsQWwAILhBbAGILQHABYgsQWwAILhBbgNgCQHCB2AIQWwCCCxBbgNgCQHCB2ALEFgCCC8QWgNgCEFyA2ALEFgCCC8QWILYAEFwgtgCxBYDgAsQWILYAEFwgtgCxBYDgArEFiC0ABBeILT8SAbEFgOACsQWILQAEF4gtQGwBILhAbAGILQAEF4gtQGwBILhAbAFiCwDB5Y+A2AIQWwAILhBbgNgCQHCB2ALEFgAILsQWgNgCQHCB2ALEFgCCC8QWILYAQHAhtgDEFgCCC8QWILYAEFwgtgCxBQCCC7EFILYAEFwgtgCxBYDgArEFiC0AEFyILQCxBYDgArEFiC0ABBeILUBsAYDgQmwBiC0ABBeILUBsASC4QGwBYgsABBdiCxBbnq0ACC4QW4DYAkBwgdgCxBYACC7EFiC2AEBwIbb8SATEFgCCC8QWILYAQHAhtgCxBQCCC7EFILYAEFwgtgCxBQCCC7EFiC0AEFyILQCxBYDgArEFiC0AEFyILUBsAYDgQmwBiC0ABBeILUBsAYDgQmwBYgsABBdiC0BsASC4QGwBYgsABBdiCxBbACC4EFsAYgsAwQViCxBbACC4EFuA2AIAwYXYAhBbAAguEFuA2AIAwYXYAsQWAAguxBaA2AJAcIHYAsQWAAguxBYgtgBAcCG2ALHl2QqA4AKxBYgtABBciC1AbAGA4EJsAWILAAQXYktsAWILAAQXYgsQWwAguBBbgNgCAMGF2AIQWwAguBBbgNgCAMGF2ALEFgAILsQWgNgCAMGF2ALEFgAILsQWILYAQHAhtgDEFgAILsQWILYAQHAhtgCxBQCCC7EFILYAQHAhtgCxBQCCC7EFiC0AEFyILQCxBQCCC7EFiC0AEFyILUBsAYDgQmwBiC0AEFyILUBsAYDgQmwBYgsABBdiC0BsAYDgQmwBYgsABBdiCxBbACC4EFuA2BJbACC4EFuA2AIAwYXYAsQWAAguxBYgtgAAwSW2xBYgtgBAcCG2ALEFAIILsQWILQBAcIktALEFAIILsQWILQAQXIgtQGwBAIJLbAGILQAQXIgtQGwBgODyRxBbgNhi4OfOt/8dYHr8yy88VwWX2ALEFpg7gLkjuAw9AEMPcwcwdwQXhh5g6GHuAOYOgsvQAww9zB1zBzB3BJehB2DoYe4A5o7gwtADDD3MHcDcQXAZeoChh7kDYO4ILkMPwNDD3AHMHcGFoQcYepg7gLmD4DL0AEMPcwfA3BFchh6AoYe5A5g7ggtDDzD0MHcAcwfBZegBhh7mDoC5I7gMPQBDD3MHMHcEF4YeYOhh7gDmDoLL0AMMPcwdAHNHcBl6AIYe5g5g7gguDD3A0MPcAcwdBJehBxh6mDsA5o7gMvQADD3MHcDcEVwYeoChh7kDmDsILkMPMPQwdwDMHcFl6AGGHpg7gLkjuDD0AEMPcwcwdxBchh5g6GHuAJg7gsvQAww9MHcAc0dwGXr+swKGHuYOYO4guAw9wNDD3AEwdwSXoQcYemDuAOaO4DL0AAw9zB3A3EFwGXqAoYe5A5g7CC5DDzD0MHfMHcDcEVyGHoChh7kDmDsILkMPMPQwdwBzB8Fl8AGGHmYOgLkjuAxAAEMPswYwdxBcBiFg6GHGAOYOgstABAw9zBYAc0dwGYz+QwOGHmYKYO4guAxIwNDDLAHMHQSXQQkYepghAOaO4MLABAw9zA7A3EFwGZyAoYeZAZg7CC4DFDD0MCsAzB3BhUEKGHqYEYC5g+AyUAFDD7MBMHcQXAYrYOhhJgCYO4ILAxYw9DALAHMHwWXQAoYeZgBg7iC4DFzA0MOzH8DcEVwYvGDoea7hmQ+YOwguAxgw9PCsB8wdBJdBDBh6eMYDmDuCCwMZDD3wbAfMHQSXwQwYenimA+YOgsuABgw9PMsBzB3BhUENhh54hgPmDoLLwAYMPTy7AXMHwYXBDYYentmAuYPgwgAHQw88qwFzB8FlkAOGHp7RgLmD4MJAB0MPz2bA3EFwYbCDoYdnsv8vgLmD4DLgAUMPz2LA3EFwYdCDoYdnMGDuILgw8MHQw7MXwNxBcBn8gKGHZy5g7iC48AMADD08awFzB8GFHwJg6OEZC2DuILj8IAAMPTxbAXMHwYUfBmDo4ZkKmDsILn8EPxDA0MOzFMDcQXD5oQAYeniGAuYOggs/GMDQw7MTMHdAcPnhAIYenpkA5g6CCz8gwNDDsxIwdxBc+CEBhh6ekYC5A4LLDwow9PBsBDB3EFz4YYGh5/89nomAuYPgwg8MMPTwLATMHRBcfmiAoYdnIIC5g+DCDw4MPfDsA8wdBBd+eIChh2ceYO6A4PIDBAw9POsAzB0EF36IYOiBZxxg7iC48IMEDD082wBzBwSXHyZg6OGZBpg7nq0ILvxAwdADzzLA3EFw4YcKGHp4hgHmDgguP1jA0MOzCzB3QHDhhwuGHp5Z/r8A5g6CCz9gwNDDswowd0Bw4YcMhh6eUYC5A4ILP2gw9PBsAjB3EFz4YQOGHp5JgLkDggs/cDD08CwCzB0QXPihg6GHZxCAuYPgwg8eMPTw7AHMHRBc+OGDoYdnDmDugODCDyAMPTxrAMwdBBd+CIGhh2cMYO6A4MIPIgw9PFsAcwcEF34YYejhmQJg7iC48AMJDD0m6j/++3pY/w/Xw/0/vu7/DGDuILhAdGHoMd2xdfsP/7ckugBzB8EFogtDjx7ElugCzB0EF4guDD16GFuiCzB3EFwgujD06GFsiS7A3EFwgejC0KOHsSW6AHMHwQWiC0OPHsaW6ALMHQQXiC4MPXoYW6ILMHcQXCC6DD3/3ulhbIkuwNxBcIHoMvSgh7ElugBzB8EFosvQgx7GlugCc8ezFcEFosvQgx7GlugCcwcEF4guQw+x1cPYEl1g7oDgAtFl6CG2bgLRBeYOCC4QXYYeYkt0AeYOCC5EF4Ye/RVbogvMHRBcILoMPcSW6ALMHRBciC4MPfoztkQXmDsguEB0GXqILdEFmDsguBBdhp6hR3/GlugCcwcEF4guQw+xJboAcwcEF6LL0IP+jC3RBeYOCC4QXYYeYkt0gbkDggtEl6GH2OrP2BJdYO6A4ALRZeghtkQXmDsguEB0GXqILdEFmDsguBBdGHqILdEF5g4ILhBdhh5iS3SBuQOCC0SXoYfYEl2AuQOCC9GFoYfYEl1g7oDgAtFl6CG2RBeYOyC4QHQZeogt0QWYOyC4EF0Yeogt0QXmDgguEF2GHmJLdIG5A4ILRJehh9gSXYC5A4IL0WXgGXqILdEF5g4ILhBdhh5iS3SBuQOCyx8B0WXoIbZEF2DugOCCAY8uQw+xJbrA3AHBBaLL0ENsiS4wdwDBhegy9BBbiC4wd0BwwcBGl6GH2BJdYO6A4ALRZeghtkQXmDuA4EJ0GXqILUQXmDsguGBgo8vQQ2yJLjB3QHCB6DL0EFuiC8QWILgQXYYeYgvRBeYOCC4Y2Ogy9BBbogvMHRBcILoMPcSW6AKxBQgu6I/oMvQQW6ILzB0QXCC6DD3EFqILsQUILuiP6DL0EFuiC8wdEFwgugw9xBaiC7EFCC7oj+gy9BBbogvMHRBcILoMPcQWoguxBQgu6I/oMvQQW6ILxBYILhBdhh5iC9GF2AIEF/RHdBl6iC3RBWILBBeIrp8aeogtRBdiCxBc0BfRZeghtkSXAEBsAYILehBdhh5iC9GF2AIEF/Qgugw9xBaiC7EFCC7oQXQZeogtRBdiCxBc0IPoMvQQW4guxBYguKAH0WXoIbYQXYgtQHBBD6LL0ENsIboQW4Dggh5El6GH2EJ0IbYAwQU9iC5DD7GF6EJsAYILehBdhh5iC9GF2AIEF/QouvwdEFuILsQWILgAxBaiC7EFCC4AsYXoEhiILRBcAIgtRBdiCxBcAGIL0YXYAgQXgNgC0YXYAsEFgNhCdCG2AMEFILYQXYgtQHABiC0QXWLLsxUEFwBiC9GF2AIEF4DYQnQhtgDBBSC2QHSJLUBwAYgtP/gRXYgtQHABiC1EF2ILEFwAYgtEl9gCBBeA2ALRhdgCBBeA2EJ0IbYAwQUgtkB0iS1AcAGILRBdiC1AcAGILUSX0BFbgOACEFsgusQWILgAxBaILsQWILgAxBaILrEFCC4AsQWiS2wBggtAbIHoQmwBggtAbIHoEluA4AIQWyC6xBYguADEFoguxBYguADEFogusQUILgCxBaJLbAGCC0BsgehCbAGCC0BsgegSW4DgAhBbILrEFiC4AMQWiC7EFiC4AMQWiC6xBQguALEFoktsAYILQGyB6BJbnq2A4AIQWyC6xBYguADEFogusQUILgCxBQxkdIktQHABiC0QXWILEFwAYgtEl9gCEFyA2AIGNrrEFiC4AMQWiC6xBQguALEFoktsAQguQGwBAxtdYgsQXABiC0SX2AIEF4DYAtEltgAEFyC2gIGNLrEFCC4AsQWiS2wBggtAbAH9EV1iCxBcAGILRJfYAgQXgNgC+iO6xBYguADEFogusQUILgCxBfRHdIktQHABiC0QXWILEFwAYgvoj+gSW4DgAhBbILrEFiC4AMQW0B/RJbYAwQUgtoAeRJfYAgQXgNgCehBdYgsQXABiC+hBdIktQHABiC2gB9EltgDBBSC2gB5El9gCBBeA2AJ6EF1iCxBcAGIL6EF0iS1AcAGILaAH0SW2AMEFILaAHkSX2AIEF4DYAnoQXWILEFwAgguYZl/9wa/Cb+/907Dt2Lc8WwHBBSC6gOmOrdqiPSF7+LWw7cPveLYCggtAdAHTHVvZ0rdCtvydsO3k9zxbAcEFILqA6Y6tbMV7IVt1NGz76PuerYDgAhBdwHTHVrbmeMjWngzbPvkrz1ZAcAGILmDSsbVwrNg6EbL1p0O24ZOw7ewPPVsBwQUguoBJxdbi8WLr45BtPBuyTefDtnN/49kKCC4A0QVMKrYeGSu2zpSxlW3+NGRDF/Po+pFnKyC4AEQXMD2xda4RW9nwpdzlsO3Tv/VsBQQXgOgCph5b5/PYutCIrWzks9yVPLp+7NkKCC4A0QWMGVsr89haPbnYyrZcLW379O88WwHBBSC6YMBja89UYiseJWyLrWzLtZLoAgQXgOiCAY6tPxk7ttbksbVuvNi63DW2SltFFyC4AEQXiK3RY2v9eLH12aixVfeNPLr+3rMVEFwAogvEVkdsbRgvtq6MGVsV0QUILgDRBWKrPbY2jhdbV8aNLdEFCC4A0QUDEluvTi62youNx4qtqxOKLdEFCC4A0QViq1tsDY0VW1cnHFuiCxBcAKILBiC23p5cbA2NFVu5rVcnHFuiCxBcAKILZlFsfTPG1v48tt6MsXV4crE1PF5sXZ1UbIkuQHABiC6YxbF1JI+tDyYeW8Pjxda1Gwou0QUILgDRBf0ZW692i613byy2RsaLrRsPLtEFCC4A0QX9F1sPvdIltt6PsfVhHlunJh5bI+PF1tSCS3QBggtAdEGfxda+kC15oy22jiWx9dHEY2tkvNiaenCJLkBwAYgu6K/YWnZwjNj6ZOKxNTJebE1PcIkuQHABiC6YobH1x52xtfxQW2ydTGLr7MRja6R9/fs10QUILgDRBQMSW68UsbW7M7aKu7ZaYut0Hlsfx9g6N7nY2jJebE1fcIkuQHABiC6YIbH1R/XYWrS3M7ZWHc1j63hbbJ2JsfXp5GJry7WbGlyiCxBcAKILZk5sPfx699ha2x5bZ2NsXZhcbN2C4BJdgOACEF0wM2Jr6YEusXWiS2ydj7F1cXKxdYuCS3QBggtAdMHNj60Fu1pj65F3OmOr2kjYElvxKOFwfLs10di6hcElugDBBSC64ObG1sI9bbF1uHtsFRsJW2LrQhJbn008tm5xcIkuQHABiC7ocWz9YTO2Fr+Wx9ZbzdhaeSRkqz/ojK3i7VZLbMW3W2VsfTbx2BJdgOACEF0wa2Nrd1tsLXkzj623W2Or42LjuJGwI7a6vN2aSGzNgOASXYDgAhBdMM2x9Y08tl5uja1leWwtfzdebBxja+3JztiqlmS0xFbbt1sTja0ZElyiCxBcAKILpjm2Xh0lto41Y2vd6c7Y2pwsyWjEVrKZcDKxNYOCS3QBggtAdMHUYmtXHlsPvhRja39rbLXftVXE1vqPu8RWfLvVElsxuLZcmVxszbDgEl2A4AIQXXBDsfVbu67VY+uhV/LY2hdj62BrbDWWZMTY2tAltobav9uKtsyO4BJdgOACEF0w+dh6IMbWoiK23oixdag1tlqWZOSxtfFsHlxdYqtlK2ERW58lsdX/wSW6AMEFILpgArH1X22xtTfG1oHusdWyJONs/e3Wpi6xNXy5LbamEFyiCxBcAKIL+jK2Xr6ax9bOZmxVFxsvTy42TmOrXJKRfLe1qW1JRhVbVXC1xNbsCy7RBQguANEFo8TWlTy2doRswe4ktpKLjVcd6Yyt8rutT/LQSo4Sbr7QGVuFjtiancElugDBBSC6YJTYKi42LmKrWP/+Vv1i49HWv1exVR0lrGKr8XYria2Ry11ia/YGl+gCBBeA6IJ6bL30WR5bL8bY2jPGXVvHu8RWXJRRbiWMsVUGV1tsDWBwiS5AcAGILsRWjK2XY2ztH2X9+/G4/v1UsiTjTOvbrWpRxtClztjqWAXfHlxXZ2VwiS5AcAGILgY5tu6vYiu52Hhpsv59ZbUko4itk91jq/h2K42tKrg6LjoezOASXYDgAhBdDFps7bycx9YLIXswja036hsJH0lia1W6/j3ZSJjGVvvbraFL3S86ns7gEl2A4AIQXTAzY+tSqN33fB5b8a6txfuS2HonZMsP57F1JI+taknGibj+/aM8tD7pjK2O44RdLjoeNbiuDExwiS5AcAGILgYltsq7tor17/uS9e9v12Nrxfsxttq/26ru2zrbGlstyzK6XHQsuEQXILgARBezPrZ2XAy1+TG2Ou7aihsJy9hKlmSsPdU8Sti4b+tca2xVhi92XnQsuEQXILgARBeDEVvPNWOr2/r3xkbC9suN295ubT7fGVtDVXBdFlyiCxBcAKKLAYmtvyxi60IeW8/msbUjuWsrLsko1r9XSzJWHYmxdTx3snmUsLhzq/p2a/O55p1baWyVwXVp/OAa4E2FogsQXACii9kWWy9WsZWsf1+0v3VJxorDMbbid1trkqOE6QXH5VHCc61vt6rYGroouEQXILgARBeDE1tfeuHTPLaeCVl519ZLMbaKJRkxtoqjhCveDdnKZElGx1HCPLY2nEm+3UqOE6ax1b4wY1LHCnu1Gv4bogsQXACiC3oRW+dD7d7teWy9UF//vvCV5pKMJW/F77YO5bHV7butU7n43daG6s6tajNheu9WEltTCq7B/Y5LdAGCC0B00a+x1bhrq9pImCzJKL/bivdtNWIrroBP3251XHKcG/o0uii4RBcguABEFwMUW8+fC7V7nq7HVrkkI24kfHh/jK0D9dgqLzdOVsAX322ta1uUUb3d2niuS3Bd6AyuiX7HJbhEFyC4AEQX/RdbZ+uxVax/v39Hc0lGYyNhXJLRuNy4y1HCdFFGGlwbzzU3FAou0QUILgDRxeDE1i/Dl547k8fWU3lsPVtfkvHgy/G7rX1tlxvHFfArjzYXZZQXHJ+MsVUtyiicbX3DVW0onGpw2VQougDBBSC66K/Y2pbH1jPNJRkPvdL8bmtptSQjroCvthJ2vN2qFmXEt1tVcG0617qhUHCJLkBwAYguBiK2nv0k1OY9GbJ789i6r4itnfUlGQv3tl1u/E6yAr54uxVjq7CuWgP/cWdwbWpbmDGh4LIaXnQBggtAdNH3sfVxqH29iK24kfCBIrZ21ZdkFLFV3rf1Vvxu6924Av5IfLt1vHUzYcvbrer7rTPNdfB9G1yiCxBcAKILJhtbz3yUx9YTISs3Ej4XNxLuiksy9iX3bR2M320dzkMrWZSx+sMu324lwbWxCq5zYwTXBavhRRcguABEF7MstrafDrW7H89jq21JRvrdVrECfunB5lbCxgr4Y8018O2bCavthBuT+7faV8IXwTUd33EJLtEFCC4A0cXMi61TeWw9FrJ51ZKMF+tLMhbEy42r77aWHgjZsneSrYRHYmxV324VwXWqM7g2VsF1tjO4JnWsUHCJLkBwAYgu+ii2fvPpPLbuerQeW+l3WwvS77Zeb24lLC44ThdlrI5r4KvNhGVwnW5dmNHydquHwWVToegCBBeA6GLmxNbJemwVSzLu2d763dZDrzbv2yqOElZbCYtFGdXbrcaijOTerbWnm8G1oQquM4JLdAGCC0B0MUCx9dSJPLa25rEVl2TMf655lLD4bqtcAf9a8yhhdcHx8vfqb7fK44Qf1INr7YedwbX+dHNhxrQFl9XwogsQXACii5keW9s+DLW5W/LYiksy7n02Xm68s/7dVnGUcFF6lPBg/YLj8u1WjK1qM2F5lLA6ThiDa/1owZVEV98Hl+gCBBeA6IL22HryeB5bIyGrlmSUlxs/37oCvjhKuLjaSnggHiWMa+BXVJccH02+3TrRDK7q7Va6En7SwWU1vOgCBBeA6KKfYuv7v8hj64NQu3M4ZOWSjOpy4+Io4Y7mCvj2C46rb7dWJN9urWxfllGtg6+C66PR7+DqdqywZTX8BZsKRRcguABEF30WW08cy2NrKI+t9LuteN/WAy8lRwmTC47Tb7dWHG5+u1Uuy2gLrnUnbjy4rIYXXYDgAhBd9G9sHQ21OZvz2NoSsuJy43lPxfu2XmiugC+3ErYtyujYTFgdJzzWXJjRElynWoOrjK6bHFw2FYouQHABiC5uWmw9fiTU/mBTyFq+20pXwCdHCRuLMuIa+Ma9W4frwbUqLstY9UHnhsLy7VZ1B5fgEl2A4AIQXczy2PriY+/nsbUxZOl3W+lRwnIF/O62RRlvJJccV2+34nHC9uBac7y5oXDU4LIaXnQBggtAdDHrYuu9PLY2hGxO9d1WXAFfHCW8rzpKGN9uLUrebjU2E8a3Wy3HCZPgWvNB64XHjeA6NU5wnZlFwSW6AMEFgOgavNh69HCo3bE+j63NIZtbfbeVHCVsebu1p8vbrfjtVnqcsFyWkd6/NdXgshpedAGCC0B00W+xtfVQqP3+upCV323Fo4RfT48SposyXomLMtrebrUsyzicXHacW300WZhRBdeJ8YNr1GOF562GF12A4AIQXfRBbG15J9S+tjZkdxTfbSVHCYuthOkFxw9Wa+Djt1sPv1a/d6tcBR+XZSxPjhNOOLhOdm4qtBpedAGCC0B00fexNfJ2Hlur89jakBwlfCwuytgesvnVUcJ0Dfyetrdb1XHCKrgON4NrVRVcx1qDa82HYweXTYWiCxBcAKKL/o2tn4cvDh8MtdtXhaw4SjhnU8juHIlbCZ+oL8q499nm261yUUb17VZy71bjOGG1nTAGV2FlsRI+3sE1WnCNualQcIkuQHABiC76MrbeCrWvrgxZcZSwWgE/d2t9UcY9cVFGx9ut4t6tvc3jhEuq44RdgqtcmJHcwXVDwdXD1fCCS3QBggtAdDHtsfUXPw9fGHozj60VeWytaT1KeNdjrYsyyjXwO1rv3Vq4t/M4YfX9VhVcjQ2F77cF17EkuKyGF1uiCwQXAKJrtsXW5jdC7bblIbt9df0oYbGVsLzguFiU8USyKCO+3Xrgpea9W+kq+CK4lnYLrndbg2tlFVxHpzG4rIYXXYDgAhBdzLTY2vR6qP3eslC7fWUeW/EoYXHBcWNRxrZkDXy1mfDl1mUZjbu3quA6kATXoYkFl9Xwgkt0geACQHTNFrcVsbVxfx5bS8ujhLXyKGG84LhalPH1alFG+nZrZz24quOExbKMRdVxwuT7raXJhcfjBlcPVsNv7sfV8OJKdIHgAkB0zY7Y2rAv1L6ypDxKWGwlrF9wXC3K2FJflDEvfruVbiZsLMtItxN2Ca5laXAV33C92xlcYy3O6Ju7uKa6OENMiS4QXACIrtkVW+v3htqXH24cJSzebtUaizLSt1vpZsIXWi86rr7fWrwvBtcbzQuPlyXfb7UHV9fFGYO2Gl48iS4QXACIrlkYW5+HL6x7NY+tRaH2laX1t1tfW12+3aqVb7eG6osy7m7fTPh8sgr+5XpwVccJF8fvtxa/Xg+u6sLjZe1bCqczuPpwNbxYEl0guAAQXbM7tn5j7Suh9jsL41HCR+JRwrXl261a+9utedXbrbgK/v7q7Va1nTAuzCjeblXBVa2EX3agM7iWjxVcx6YYXDN0Nbw4El0guAAQXYMSW7vz2Hoo1L68uH6UMC7KqL/d2hRqdw6F2tz07Va6LCO9e2tXElzxwuP2O7hGDa4BWQ0viEQXCC4ARNegxdaCUPvdRcmijOLbrebbrdqdI6FWvt16vHUVfHWc8IF4nLARXHuawfXwa0lwvXnjwbV6ksE1k1bDCyDRBYILANE1yLG1sLkoo3y7VXy7tb78dqv+dmtLqJVvt+Iq+Hu2TyC44pHC8YJrVq6Gvyp4RBcILgBEl9iqYmtxc1FG27dbtbnDoXbX1jy40lXwcTthtQ6+EVy7W99wdQuupQfG3lTYt6vhr9oyKLpAcAEgusRWt9haUn+7dVt8u3VHfTNhbU58u3XXo6HWWJbxdP37rXQd/AMvJRcejxFcSyYQXP20Gr4MLZElukBwASC6GDe2lofaV1fFe7fWx2UZw43jhLXG3VtPty3M2Dmx4Crv4Xqzy2r4Q322Gl5kiS5AcAGILiYdWytC7fbV9eOE5dutalnG1hhc1XbC9u+34huuBd2Ca98owdVnq+HLt1m+yxJdgOACEF3ccGyt6rIKvjpO+HgZXLXRgqu8g2tX9+BqvOV6o79Ww5ehdcV3WaILEFwAoovpiK34dqs4TjgnCa67Y3DNK4IrWZgxf6zgerVLcPXBaniRJboAwQUgukRUb2Irvt1q3L01nBwnfCIPrm0xuJ5Jgiu59LjlG67q4uO9N2E1/KmprYYvQ+uyI4OiCxBcAIiuXsZWfLt1x8bmOvi5MbjmpcE1ypHC9uBauHfmroYv3mgVb7NElugSXSC4ABBdNye21jW3E5br4JOFGe3Bdd8owbWguvh4jOCa8Gr4I9O/Gr74Nqs8Mig0EF0guAAQXTc9tjYkwbWlceFxuTCjCq752+sr4ccNrhmwGr4IreLIYLFlUFggukBwASC6bm1sbcxtri/MuCtuKOwIrmeSN1zVN1w7k+Cawmr4FdO0Gr74RmvkspBAdIHgAkB0zaTYqu7fSlbCl8H1RB5b9eCq3XsDwXUzVsOXRwYvuZQY0QWCCwDRNVNja1NzQ2F6pHBeW3BVSzPuGyu4bsJq+OLYYPFdlshCdIHgAkB0zfzYisE1Jw2ux8YOrvI7rp03bzV88TarWOe+xfILRBcILgBEV9/FVhJcd29tO1L4VB5c2+N3XM8lwdXj1fDF26zi3iwbBhFdILgAEF39HVtVcI3ksfXoOMF1g6vhJxJcq47VjwwOW36B6ALBBYDomjWxlXzDVQbXY/XgmncjwTXJ1fDFW631p0UWogsEFwCia7bG1mSDayqr4Q/W326tOVG/L8uPe0QXCC4ARNfsjq2hGFwjzaUZZXA9WQ+uG10NXwZXXA1fHCdc80H9viw/5hFdILgAEF2DE1vtwfVo9+CaP5HgalsNXxwZLO7L8uMd0QWCCwDRNZixFYPrzjS4Hh89uMZbDV+sel//kTXuiC4QXACILrHVlATXZFfDF99nrTttjTuiCwQXAKJLbI0aXI3FGRNYDV8cG1xzPGTDl/wgR3SB4AJAdImt0WOrPbhG2VRYHBss7ssauugHOKILBBcA9Ed03frYGiO47n8x1Ip7s2wYBNGF4PJHAKDfomtmxFayqbAIrvnPhFrxXZYNgyC6QHAB0K/RNXNia6geWsU9WsXyCz+oQXSB4AKgn6NrRsRWGVmv1pdf+AENogsEFwCzIbpueWwteFlkgegCwQXA7IuuWxZbRWStfD9kI5/5kQyiCwQXALMvum56bN3/gsgC0QWCC4DZH103Lbbmbw/Z8kMh2/ypH8EgukBwATD7o6vnsVVcTLz8nTyyzvvRC6ILBBcAgxNdPYut4mLixftDtuGT/EfetciPXRBdILgAGJDomvbYKiNrXx5ZH4dsy7U6sQWiCwQXAIMWXdMWW3NHQu2h3SFbeyIPrKvN0BJbILpAcAEwiNE15di6c7i+xn3VkZCNXImhJbZAdIHgAmDAo2tKsVWucX8vZMOX66vcxRaILhBcAIiuKcTW/GdDtuxgyDaezUPrktgC0QWCCwDRNaXYmvdkyJa8Wd8wWNyXNXRRbIHoAsEFgOi64diaOxKyhXtCtuZ4/W3WpvNiC0QXCC4AGCu6xoytOZtCViy/WPl+yNZ/VH+jJbZAdIkuBBcAjB9dXWPr9tWhds9TIVv6Vv1t1tqTYgsQXQguAJhMdLXE1m2PhNrdj4WsuJR4xXshW3VUbAGiC8EFADcSXWt/lMfW+j3lxcTZAztCtvRAyJYfEluA6EJwAcBU/ew/Pw9znjkVsodfF1uA6EJwAcD0R9cvwpznzogtQHQhuACgZ9G145LYAkQXggsAehNdvwxzdl0TW4DoQnABQM+ia/c3xRYguhBcANCz6NrzLbEFiC4EFwD0JLo+/1WYs/fbYgsQXQguAOhZdO3/jtgCRBeCCwB6Fl2v/ZnYAkQXggsAehZdr39XbAGiC8EFAL2Lrj8XW4DoQnABQE+jS2wBogvBBQC9jC4/FgHRheACgB5F1/f8WAREF4ILAEQXILpAcAEgugDRBYILAEQXILoQXAAgugDRBYILANEFILoQXAAgugDRheACANEFiC4QXACILgDRheACANEFiC4EFwCILkB0geACQHQBiC4EFwCILkB0IbgAQHQBogsEFwCiC0B0IbgAQHQBogvBBQCiCxBdILgAEF1+LAKiC8EFAKILEF0ILgAQXYDoAsEFAKILEF0ILgAQXYDoQnABgOgCEF0ILgAQXYDoQnABgOgCRBeCCwBEF4DoQnABgOgCRBeCCwBEFyC6EFwAILoARBeCCwBEFyC6EFwAILoA0YXgAgDRBSC6EFwAILoA0YXgAgDRBYguBBcAiC4/FgHRheACANEFiC4EFwCILkB0IbgAANEFiC4EFwCILkB0IbgAQHQBiC7BBQCILkB0IbgAQHQBogvBBQCiC0B0CS4AQHQBogvBBQCiCxBdCC4AEF0AoktwAQCiCxBdCC4AEF2A6EJwAYDoAhBdggsAEF2A6EJwAYDoAkQXggsARJcfi4DoElwAgOgCRBeCCwBEFyC6EFwAgOgCRJfgAgBEFyC6EFwAILoARJfgAgBEFyC6BBcAILoA0YXgAgDRBSC6BBcAILoA0SW4AADRBYguBBcAiC4A0SW4AADRBYguwQUAiC5AdCG4AEB0AYguwQUAiC5AdAkuAEB0AaILwQUAogtAdAkuAEB0AaJLcPlDAIDoAkQXggsAEF2A6BJcAIDoAkSX4PJHAADRBSC6BBcAILoA0SW4AADRBYguBBcAiC4A0SW4AADRBYguwQUAiC5AdCG4AEB0AYguwQUAiC5AdAkuAEB0AaILwQUAogtAdAkuAEB0AaJLcAEAogsQXQguABBdAKJLcAEAogsQXYILABBdgOhCcAEAogsQXYILABBdgOgSXABAX0fXupN/HRa+9wOAKfvuT/7Ns1VwAQAACC4AAADBBQAAgOACAAAQXAAAAIILAAAAwQUAACC4AAAABBcAAACCCwAAQHABAAAILgAAAAQXAACA4AIAABBcAAAACC4AAADBBQAAILgAAAAQXAAAAIILAABAcAEAACC4AAAABBcAAIDgAgAAQHABAAAILgAAAMEFAACA4AIAABBcAAAAggsAAADBBQAAILgAAAAEFwAAAIILAABAcAEAAAguAAAABBcAAIDgAgAAEFwAAAAILgAAgBnj/wFcfZ7smU1a4QAAAABJRU5ErkJggg==" parent="1" vertex="1">
                    <mxGeometry x="742.11" y="509.55999999999995" width="36.79" height="41.88" as="geometry"/>
                </mxCell>
                <mxCell id="7hMbwOXeX9MvCnkQvBMl-8" value="ios / Android" style="text;html=1;align=center;verticalAlign=middle;resizable=0;points=[];autosize=1;" parent="1" vertex="1">
                    <mxGeometry x="720.5" y="471.5" width="80" height="20" as="geometry"/>
                </mxCell>
                <mxCell id="24" style="edgeStyle=orthogonalEdgeStyle;rounded=0;orthogonalLoop=1;jettySize=auto;html=1;" edge="1" parent="1" source="7hMbwOXeX9MvCnkQvBMl-10" target="22">
                    <mxGeometry relative="1" as="geometry"/>
                </mxCell>
                <mxCell id="7hMbwOXeX9MvCnkQvBMl-10" value="" style="shape=image;verticalLabelPosition=bottom;verticalAlign=top;imageAspect=0;aspect=fixed;image=data:image/svg+xml,PHN2ZyB4bWxucz0iaHR0cDovL3d3dy53My5vcmcvMjAwMC9zdmciIHdpZHRoPSIyMDY1IiBoZWlnaHQ9IjI1MDAiIHZpZXdCb3g9IjAgMCAyNTYgMzEwIiBwcmVzZXJ2ZUFzcGVjdFJhdGlvPSJ4TWlkWU1pZCI+PHBhdGggZD0iTTIwLjYyNCA1My42ODZMMCA2NHYxODEuMDJsMjAuNjI0IDEwLjI1NC4xMjQtLjE0OVY1My44MjhsLS4xMjQtLjE0MiIgZmlsbD0iIzhDMzEyMyIvPjxwYXRoIGQ9Ik0xMzEgMjI5TDIwLjYyNCAyNTUuMjc0VjUzLjY4NkwxMzEgNzkuMzg3VjIyOSIgZmlsbD0iI0UwNTI0MyIvPjxwYXRoIGQ9Ik04MS4xNzggMTg3Ljg2Nmw0Ni44MTggNS45Ni4yOTQtLjY3OC4yNjMtNzYuNzctLjU1Ny0uNi00Ni44MTggNS44NzR2NjYuMjE0IiBmaWxsPSIjOEMzMTIzIi8+PHBhdGggZD0iTTEyNy45OTYgMjI5LjI5NWwxMDcuMzcxIDI2LjAzNS4xNjktLjI2OS0uMDAzLTIwMS4xOTUtLjE3LS4xOC0xMDcuMzY3IDI1Ljk5NnYxNDkuNjEzIiBmaWxsPSIjOEMzMTIzIi8+PHBhdGggZD0iTTE3NC44MjcgMTg3Ljg2NmwtNDYuODMxIDUuOTZ2LTc4LjA0OGw0Ni44MzEgNS44NzR2NjYuMjE0IiBmaWxsPSIjRTA1MjQzIi8+PHBhdGggZD0iTTE3NC44MjcgODkuNjMxbC00Ni44MzEgOC41MzUtNDYuODE4LTguNTM1IDQ2Ljc1OS0xMi4yNTYgNDYuODkgMTIuMjU2IiBmaWxsPSIjNUUxRjE4Ii8+PHBhdGggZD0iTTE3NC44MjcgMjE5LjgwMWwtNDYuODMxLTguNTkxLTQ2LjgxOCA4LjU5MSA0Ni43NjEgMTMuMDUzIDQ2Ljg4OC0xMy4wNTMiIGZpbGw9IiNGMkIwQTkiLz48cGF0aCBkPSJNODEuMTc4IDg5LjYzMWw0Ni44MTgtMTEuNTg2LjM3OS0uMTE3Vi4zMTNMMTI3Ljk5NiAwIDgxLjE3OCAyMy40MTN2NjYuMjE4IiBmaWxsPSIjOEMzMTIzIi8+PHBhdGggZD0iTTE3NC44MjcgODkuNjMxbC00Ni44MzEtMTEuNTg2VjBsNDYuODMxIDIzLjQxM3Y2Ni4yMTgiIGZpbGw9IiNFMDUyNDMiLz48cGF0aCBkPSJNMTI3Ljk5NiAzMDkuNDI4bC00Ni44MjMtMjMuNDA1di02Ni4yMTdsNDYuODIzIDExLjU4Mi42ODkuNzgzLS4xODcgNzUuOTA2LS41MDIgMS4zNTEiIGZpbGw9IiM4QzMxMjMiLz48cGF0aCBkPSJNMTI3Ljk5NiAzMDkuNDI4bDQ2LjgyNy0yMy40MDV2LTY2LjIxN2wtNDYuODI3IDExLjU4MnY3OC4wNE0yMzUuMzY3IDUzLjY4NkwyNTYgNjR2MTgxLjAybC0yMC42MzMgMTAuMzFWNTMuNjg2IiBmaWxsPSIjRTA1MjQzIi8+PC9zdmc+" parent="1" vertex="1">
                    <mxGeometry x="429.59" y="465" width="47.41" height="57.33" as="geometry"/>
                </mxCell>
                <mxCell id="8" value="&lt;font color=&quot;#ffffff&quot;&gt;User Account&lt;/font&gt;" style="outlineConnect=0;fontColor=#232F3E;gradientColor=none;strokeColor=#232F3E;fillColor=#ffffff;dashed=0;verticalLabelPosition=bottom;verticalAlign=top;align=center;html=1;fontSize=12;fontStyle=0;aspect=fixed;shape=mxgraph.aws4.resourceIcon;resIcon=mxgraph.aws4.lambda_function;" parent="1" vertex="1">
                    <mxGeometry x="440" y="303.5" width="60" height="60" as="geometry"/>
                </mxCell>
                <mxCell id="10" value="&lt;font color=&quot;#ffffff&quot;&gt;Acount interaction&lt;/font&gt;" style="outlineConnect=0;fontColor=#232F3E;gradientColor=none;strokeColor=#232F3E;fillColor=#ffffff;dashed=0;verticalLabelPosition=bottom;verticalAlign=top;align=center;html=1;fontSize=12;fontStyle=0;aspect=fixed;shape=mxgraph.aws4.resourceIcon;resIcon=mxgraph.aws4.lambda_function;" parent="1" vertex="1">
                    <mxGeometry x="533.8" y="303.5" width="60" height="60" as="geometry"/>
                </mxCell>
                <mxCell id="20" style="edgeStyle=orthogonalEdgeStyle;rounded=0;orthogonalLoop=1;jettySize=auto;html=1;exitX=0;exitY=0.5;exitDx=0;exitDy=0;exitPerimeter=0;" edge="1" parent="1" source="15">
                    <mxGeometry relative="1" as="geometry">
                        <mxPoint x="689.99" y="211.51428571428573" as="targetPoint"/>
                    </mxGeometry>
                </mxCell>
                <mxCell id="15" value="" style="outlineConnect=0;dashed=0;verticalLabelPosition=bottom;verticalAlign=top;align=center;html=1;shape=mxgraph.aws3.cognito;fillColor=#AD688B;gradientColor=none;" parent="1" vertex="1">
                    <mxGeometry x="737.01" y="182.5" width="47" height="58" as="geometry"/>
                </mxCell>
                <mxCell id="17" value="Cognito&lt;br&gt;(User Pool - Identity Pool)" style="text;html=1;align=center;verticalAlign=middle;resizable=0;points=[];autosize=1;" parent="1" vertex="1">
                    <mxGeometry x="686.5" y="143.99999999999994" width="148" height="31" as="geometry"/>
                </mxCell>
                <mxCell id="18" value="" style="endArrow=classic;startArrow=classic;html=1;exitX=0.5;exitY=1;exitDx=0;exitDy=0;exitPerimeter=0;" edge="1" parent="1" source="15" target="7hMbwOXeX9MvCnkQvBMl-8">
                    <mxGeometry width="50" height="50" relative="1" as="geometry">
                        <mxPoint x="688" y="343" as="sourcePoint"/>
                        <mxPoint x="738" y="293" as="targetPoint"/>
                        <Array as="points">
                            <mxPoint x="761" y="290"/>
                        </Array>
                    </mxGeometry>
                </mxCell>
                <mxCell id="21" value="Account Creation / Login" style="text;html=1;align=center;verticalAlign=middle;resizable=0;points=[];autosize=1;rotation=-90;" vertex="1" parent="1">
                    <mxGeometry x="676" y="345.5" width="142" height="18" as="geometry"/>
                </mxCell>
                <mxCell id="25" style="edgeStyle=orthogonalEdgeStyle;rounded=0;orthogonalLoop=1;jettySize=auto;html=1;entryX=0;entryY=0.5;entryDx=0;entryDy=0;" edge="1" parent="1" source="22" target="g6cdSrCcOUmQ4DHS_6iD-16">
                    <mxGeometry relative="1" as="geometry"/>
                </mxCell>
                <mxCell id="22" value="" style="dashed=0;outlineConnect=0;html=1;align=center;labelPosition=center;verticalLabelPosition=bottom;verticalAlign=top;shape=mxgraph.weblogos.mongodb" vertex="1" parent="1">
                    <mxGeometry x="593.8" y="504.4" width="27" height="52.2" as="geometry"/>
                </mxCell>
                <mxCell id="23" value="MongoDB Atlas" style="text;html=1;align=center;verticalAlign=middle;resizable=0;points=[];autosize=1;" vertex="1" parent="1">
                    <mxGeometry x="557" y="567.5" width="94" height="18" as="geometry"/>
                </mxCell>
            </root>
        </mxGraphModel>
    </diagram>
</mxfile>